PathFileType	4	(X/Y/Z)	Patient4_TMGait_0pt5_02_left_40.trc.trc
DataRate	CameraRate	NumFrames	NumMarkers	Units	OrigDataRate	OrigDataStartFrame	OrigNumFrames
75.675675675676	75.675675675676	4	33	mm	75.675675675676	89	       141
Frame#	Time	Sacral			L.Shoulder			Chest			R.Shoulder			Neck			R.ASIS			L.ASIS			R.Thigh.Superior			R.Thigh.Lateral			R.Thigh.Inferior			R.Patella			L.Thigh.Superior			L.Thigh.Lateral			L.Thigh.Inferior			L.Patella			L.Shank.Superior			L.Shank.Lateral			L.Shank.Inferior			R.Shank.Superior			R.Shank.Lateral			R.Shank.Inferior			R.Heel			R.Midfoot.Superior			R.Midfoot.Lateral			R.Toe			L.Heel			L.Midfoot.Lateral			L.Midfoot.Superior			L.Toe			L.Elbow			L.Wrist			R.Elbow			R.Wrist			
		X1	Y1	Z1	X2	Y2	Z2	X3	Y3	Z3	X4	Y4	Z4	X5	Y5	Z5	X6	Y6	Z6	X7	Y7	Z7	X8	Y8	Z8	X9	Y9	Z9	X10	Y10	Z10	X11	Y11	Z11	X12	Y12	Z12	X13	Y13	Z13	X14	Y14	Z14	X15	Y15	Z15	X16	Y16	Z16	X17	Y17	Z17	X18	Y18	Z18	X19	Y19	Z19	X20	Y20	Z20	X21	Y21	Z21	X22	Y22	Z22	X23	Y23	Z23	X24	Y24	Z24	X25	Y25	Z25	X26	Y26	Z26	X27	Y27	Z27	X28	Y28	Z28	X29	Y29	Z29	X30	Y30	Z30	X31	Y31	Z31	X32	Y32	Z32	X33	Y33	Z33	

89	52.722857142857	718.998889430496	1002.623649325791	473.790732905626	917.337322471960	1431.147052090126	311.597415610465	1002.314914281666	1355.479455183342	480.482194626760	903.433227705240	1428.353713023154	647.360398745946	905.350835837733	1489.656846108994	463.005107537150	941.579728918242	936.561811997166	603.960008795206	938.377117061299	954.516879421940	329.127211905282	1005.703305400411	747.997179287568	569.662736217092	936.944254875008	633.132870737947	628.187640505905	1019.988671864384	588.499327684014	547.480256772438	1031.411820804909	497.884422522978	553.499052159319	968.518099725089	731.848040087194	359.518800235296	876.617097960019	621.043097003744	295.092992355346	952.097475872208	534.191173083862	360.895255104236	941.437926242880	450.898188712135	361.851738815398	878.137278756559	392.377240971601	354.033681400751	745.996096391946	334.272601516315	300.101447111789	739.099629824317	209.332583670387	362.666282700155	1005.261523652187	408.379380762563	562.158768827928	939.425289450676	303.211717410300	627.503499125728	982.866015537960	209.003044242255	564.203464285663	853.399107708057	42.993194239479	539.736918227069	1024.373958065708	98.309251071146	570.442946545455	938.690001545881	37.204711827804	612.214967464623	1146.094640452718	46.327246705214	595.337671759479	555.102258300977	117.639756980350	395.962331904744	622.259042656008	85.962345600133	317.495584209462	721.234527596524	113.791954261424	342.366616141577	819.500000044809	33.692805542586	316.396463152355	949.311247136218	1088.202034671171	171.516609968322	1192.676986599302	1001.459288593053	187.884046548421	788.688602252868	1094.920694134584	740.463326180383	807.137197156455	833.962634676638	728.697550384607	
90	52.736071428571	718.698754203343	1003.120479410823	477.208416764493	915.311652673853	1431.920015745468	313.823399502788	1001.959285157986	1356.000403989866	481.752503291173	904.804935104974	1428.540674173409	649.759797866921	904.766069634199	1490.151478139677	465.513326607693	941.933367638561	937.120363042851	605.612920267670	936.928245258903	954.621788886739	330.653286853311	1004.366183382441	747.088825549786	572.442564610587	934.059771088083	632.950593250842	630.098581997288	1016.877158597523	587.765959290648	549.391251151112	1027.384717361559	497.223579480950	554.809946605154	972.345316661209	734.298222712752	361.729685246964	884.845682720283	621.090090013148	296.780592668332	963.465736829954	535.989106063159	362.197910924059	953.900012026488	451.322705132617	362.446256249946	888.452737034307	393.030131299469	354.973131763834	753.862989663839	340.009015602189	301.693898479199	743.238755206443	214.997648800743	363.437109304289	1000.782429409984	407.878915182580	563.249902976050	934.528022812985	302.878513380454	628.291638523883	977.203335731828	208.625125451508	564.639666979098	846.873443538531	43.016485933457	539.851385740025	1017.924791268734	98.201748517683	570.637349666137	932.135872545467	37.154336079700	612.355208939261	1139.611335333002	45.928846195391	595.555222840913	555.744166074140	132.212465113006	396.930454890757	620.915677118021	96.957384837218	318.225186223345	721.502280411324	118.752531718074	342.904548549580	814.080205499097	32.926233399936	316.690095153750	943.816253654658	1087.446112603423	175.779797775160	1182.627506885329	987.376479153905	191.356098322027	797.442653750127	1092.451642627181	744.672014650686	827.416179127946	832.568745879655	731.521573495438	
91	52.749285714286	718.244039167470	1003.557039847843	480.576938485756	913.094394924902	1432.532770014185	315.821589821940	1001.497361216759	1356.412621579720	482.753546741748	906.178712030594	1428.640355689683	651.934396372052	904.073979573670	1490.541751928155	467.787776290708	942.063798868349	937.594635772385	607.232053461513	935.363700877716	954.523320843029	332.114573386009	1002.758152714132	746.161466573153	575.094808904660	931.064807327595	632.761102586165	632.004301422690	1013.522568088838	587.013646506959	551.198787723966	1023.111352824683	496.554687648916	556.104590819666	975.978443703287	736.951826058047	363.904737110843	893.009569589277	621.513983520600	298.241340201688	974.644610199896	538.318846736378	363.322676390667	966.346334679491	452.391495143547	362.991685320817	899.041860909979	394.168882238279	355.820532312408	762.282661040044	345.958420632413	303.174142673931	748.117350148147	220.998100793782	364.245897055099	996.092246022676	407.358317521942	564.342748449747	929.461082588307	302.500380003734	629.086932094945	971.408618435752	208.225290423554	565.072775020877	840.239013686542	43.020221496324	539.972494939635	1011.390533225533	98.043557457237	570.796374988256	925.487859695546	37.081925338367	612.490583281877	1133.040002398793	45.468815660466	595.713519317315	557.563977938167	146.829972888131	397.977452053182	620.742002124041	108.303557196597	319.000872900603	722.693227701216	124.201656368708	343.546796005974	809.659986297231	32.343157129262	316.921307519909	938.196969391220	1086.586507893630	179.807714370604	1171.375302227259	972.740479837838	194.600648966013	806.509498432747	1090.148933653364	748.944334908742	848.695928627415	831.964856341978	734.343151889506	
92	52.762500000000	717.614568196747	1003.956427444422	483.869963117869	910.753222781411	1432.984268984001	317.577501496148	1000.941828536273	1356.722175096410	483.500002993720	907.522525911889	1428.690828851985	653.854280185124	903.320119338640	1490.847309276398	469.796135147896	941.971210274890	938.001114226052	608.828779144478	933.690340246868	954.300550454945	333.535080048915	1000.920300490295	745.275746684010	577.522730697824	928.024271927433	632.585408512272	633.852777021176	1009.986809344227	586.270296306200	552.850571574209	1018.653855598597	495.896881922641	557.326092857362	979.326030379890	739.831898520220	366.028399002605	900.918262291655	622.386606497818	299.490919860930	985.415920028881	541.221820564233	364.281459486297	978.587174030204	454.157813046946	363.473940494830	909.745683795741	395.829748973275	356.559884811732	771.121505442015	351.963758366113	304.510688464579	753.758679601117	227.112068605018	365.038887040393	991.251834595017	406.840192530509	565.394463647044	924.287914978964	302.111594428825	629.873650098750	965.530827537681	207.827847486490	565.486173054784	833.537530341269	43.015544628011	540.106051350408	1004.802676928125	97.861178591292	570.926928581332	918.785249757526	37.003539029796	612.627098450643	1126.414636955072	44.995560024355	595.828517037005	560.656484396813	160.822128369442	399.044127794130	621.948106207127	119.463867691076	319.769384432943	724.997070091013	129.910622715703	344.216552300058	806.719846829000	32.040352870024	317.022936958443	932.444847233665	1085.608036283506	183.612753791835	1158.843986892691	957.727794256782	197.603135925413	815.878393987354	1088.056602899540	753.214285215136	870.902733663926	832.313272299013	737.075980448510	
